<mxfile host="app.diagrams.net" modified="2024-03-26T14:39:09.533Z" agent="Mozilla/5.0 (Windows NT 10.0; Win64; x64) AppleWebKit/537.36 (KHTML, like Gecko) Chrome/122.0.0.0 Safari/537.36 Edg/122.0.0.0" etag="nlRTrYiJ_qUWHnczuR8n" version="24.0.5" type="device">
  <diagram id="R2lEEEUBdFMjLlhIrx00" name="Page-1">
    <mxGraphModel dx="4262" dy="2999" grid="1" gridSize="10" guides="1" tooltips="1" connect="1" arrows="1" fold="1" page="1" pageScale="1" pageWidth="850" pageHeight="1100" math="0" shadow="0" extFonts="Permanent Marker^https://fonts.googleapis.com/css?family=Permanent+Marker">
      <root>
        <mxCell id="0" />
        <mxCell id="1" parent="0" />
        <mxCell id="RkOCH-rmwueEorpM6I2W-3" style="edgeStyle=orthogonalEdgeStyle;rounded=0;orthogonalLoop=1;jettySize=auto;html=1;exitX=0.5;exitY=1;exitDx=0;exitDy=0;entryX=0.5;entryY=0;entryDx=0;entryDy=0;" parent="1" source="RkOCH-rmwueEorpM6I2W-1" target="RkOCH-rmwueEorpM6I2W-2" edge="1">
          <mxGeometry relative="1" as="geometry" />
        </mxCell>
        <mxCell id="RkOCH-rmwueEorpM6I2W-1" value="Inicio" style="rounded=0;whiteSpace=wrap;html=1;" parent="1" vertex="1">
          <mxGeometry x="-2210" y="-1440" width="120" height="60" as="geometry" />
        </mxCell>
        <mxCell id="RkOCH-rmwueEorpM6I2W-7" style="edgeStyle=orthogonalEdgeStyle;rounded=0;orthogonalLoop=1;jettySize=auto;html=1;exitX=0.5;exitY=1;exitDx=0;exitDy=0;entryX=0.5;entryY=0;entryDx=0;entryDy=0;" parent="1" source="RkOCH-rmwueEorpM6I2W-2" target="RkOCH-rmwueEorpM6I2W-4" edge="1">
          <mxGeometry relative="1" as="geometry" />
        </mxCell>
        <mxCell id="RkOCH-rmwueEorpM6I2W-13" style="edgeStyle=orthogonalEdgeStyle;rounded=0;orthogonalLoop=1;jettySize=auto;html=1;exitX=0.5;exitY=1;exitDx=0;exitDy=0;" parent="1" source="RkOCH-rmwueEorpM6I2W-2" target="RkOCH-rmwueEorpM6I2W-5" edge="1">
          <mxGeometry relative="1" as="geometry" />
        </mxCell>
        <mxCell id="RkOCH-rmwueEorpM6I2W-14" style="edgeStyle=orthogonalEdgeStyle;rounded=0;orthogonalLoop=1;jettySize=auto;html=1;exitX=0.5;exitY=1;exitDx=0;exitDy=0;entryX=0.5;entryY=0;entryDx=0;entryDy=0;" parent="1" source="RkOCH-rmwueEorpM6I2W-2" target="RkOCH-rmwueEorpM6I2W-11" edge="1">
          <mxGeometry relative="1" as="geometry" />
        </mxCell>
        <mxCell id="RkOCH-rmwueEorpM6I2W-15" style="edgeStyle=orthogonalEdgeStyle;rounded=0;orthogonalLoop=1;jettySize=auto;html=1;exitX=0.5;exitY=1;exitDx=0;exitDy=0;" parent="1" source="RkOCH-rmwueEorpM6I2W-2" target="RkOCH-rmwueEorpM6I2W-12" edge="1">
          <mxGeometry relative="1" as="geometry" />
        </mxCell>
        <mxCell id="RkOCH-rmwueEorpM6I2W-2" value="Panel principal" style="rounded=0;whiteSpace=wrap;html=1;" parent="1" vertex="1">
          <mxGeometry x="-2210" y="-1350" width="120" height="60" as="geometry" />
        </mxCell>
        <mxCell id="RkOCH-rmwueEorpM6I2W-4" value="Generar nueva solicitud" style="rounded=0;whiteSpace=wrap;html=1;" parent="1" vertex="1">
          <mxGeometry x="-2490" y="-1250" width="120" height="60" as="geometry" />
        </mxCell>
        <mxCell id="RkOCH-rmwueEorpM6I2W-5" value="Buscar solicitud" style="rounded=0;whiteSpace=wrap;html=1;" parent="1" vertex="1">
          <mxGeometry x="-2350" y="-1250" width="120" height="60" as="geometry" />
        </mxCell>
        <mxCell id="RkOCH-rmwueEorpM6I2W-6" value="Generar reporte" style="rounded=0;whiteSpace=wrap;html=1;" parent="1" vertex="1">
          <mxGeometry x="-2210" y="-1250" width="120" height="60" as="geometry" />
        </mxCell>
        <mxCell id="RkOCH-rmwueEorpM6I2W-10" value="" style="endArrow=classic;startArrow=classic;html=1;rounded=0;entryX=0.5;entryY=0;entryDx=0;entryDy=0;exitX=0.5;exitY=1;exitDx=0;exitDy=0;" parent="1" source="RkOCH-rmwueEorpM6I2W-2" target="RkOCH-rmwueEorpM6I2W-6" edge="1">
          <mxGeometry width="50" height="50" relative="1" as="geometry">
            <mxPoint x="-2270" y="-1290" as="sourcePoint" />
            <mxPoint x="-2195" y="-1300" as="targetPoint" />
          </mxGeometry>
        </mxCell>
        <mxCell id="RkOCH-rmwueEorpM6I2W-11" value="Configuraciones" style="rounded=0;whiteSpace=wrap;html=1;" parent="1" vertex="1">
          <mxGeometry x="-2070" y="-1250" width="120" height="60" as="geometry" />
        </mxCell>
        <mxCell id="RkOCH-rmwueEorpM6I2W-12" value="Perfil" style="rounded=0;whiteSpace=wrap;html=1;" parent="1" vertex="1">
          <mxGeometry x="-1930" y="-1250" width="120" height="60" as="geometry" />
        </mxCell>
        <mxCell id="44BHYda0BKMnVvwUATFj-1" value="Usuario" style="shape=table;startSize=25;container=1;collapsible=1;childLayout=tableLayout;fixedRows=1;rowLines=0;fontStyle=1;align=center;resizeLast=1;fillColor=#97D077;" parent="1" vertex="1">
          <mxGeometry x="-1070" y="-1925" width="250" height="190" as="geometry" />
        </mxCell>
        <mxCell id="44BHYda0BKMnVvwUATFj-2" value="" style="shape=partialRectangle;collapsible=0;dropTarget=0;pointerEvents=0;fillColor=none;points=[[0,0.5],[1,0.5]];portConstraint=eastwest;top=0;left=0;right=0;bottom=1;" parent="44BHYda0BKMnVvwUATFj-1" vertex="1">
          <mxGeometry y="25" width="250" height="30" as="geometry" />
        </mxCell>
        <mxCell id="44BHYda0BKMnVvwUATFj-3" value="PK" style="shape=partialRectangle;overflow=hidden;connectable=0;fillColor=none;top=0;left=0;bottom=0;right=0;fontStyle=1;" parent="44BHYda0BKMnVvwUATFj-2" vertex="1">
          <mxGeometry width="30" height="30" as="geometry">
            <mxRectangle width="30" height="30" as="alternateBounds" />
          </mxGeometry>
        </mxCell>
        <mxCell id="44BHYda0BKMnVvwUATFj-4" value="id_usuario" style="shape=partialRectangle;overflow=hidden;connectable=0;fillColor=none;top=0;left=0;bottom=0;right=0;align=left;spacingLeft=6;fontStyle=5;" parent="44BHYda0BKMnVvwUATFj-2" vertex="1">
          <mxGeometry x="30" width="220" height="30" as="geometry">
            <mxRectangle width="220" height="30" as="alternateBounds" />
          </mxGeometry>
        </mxCell>
        <mxCell id="44BHYda0BKMnVvwUATFj-5" value="" style="shape=partialRectangle;collapsible=0;dropTarget=0;pointerEvents=0;fillColor=none;points=[[0,0.5],[1,0.5]];portConstraint=eastwest;top=0;left=0;right=0;bottom=0;" parent="44BHYda0BKMnVvwUATFj-1" vertex="1">
          <mxGeometry y="55" width="250" height="30" as="geometry" />
        </mxCell>
        <mxCell id="44BHYda0BKMnVvwUATFj-6" value="" style="shape=partialRectangle;overflow=hidden;connectable=0;fillColor=none;top=0;left=0;bottom=0;right=0;" parent="44BHYda0BKMnVvwUATFj-5" vertex="1">
          <mxGeometry width="30" height="30" as="geometry">
            <mxRectangle width="30" height="30" as="alternateBounds" />
          </mxGeometry>
        </mxCell>
        <mxCell id="44BHYda0BKMnVvwUATFj-7" value="nombreUsuario" style="shape=partialRectangle;overflow=hidden;connectable=0;fillColor=none;top=0;left=0;bottom=0;right=0;align=left;spacingLeft=6;" parent="44BHYda0BKMnVvwUATFj-5" vertex="1">
          <mxGeometry x="30" width="220" height="30" as="geometry">
            <mxRectangle width="220" height="30" as="alternateBounds" />
          </mxGeometry>
        </mxCell>
        <mxCell id="44BHYda0BKMnVvwUATFj-8" style="shape=partialRectangle;collapsible=0;dropTarget=0;pointerEvents=0;fillColor=none;points=[[0,0.5],[1,0.5]];portConstraint=eastwest;top=0;left=0;right=0;bottom=0;" parent="44BHYda0BKMnVvwUATFj-1" vertex="1">
          <mxGeometry y="85" width="250" height="30" as="geometry" />
        </mxCell>
        <mxCell id="44BHYda0BKMnVvwUATFj-9" style="shape=partialRectangle;overflow=hidden;connectable=0;fillColor=none;top=0;left=0;bottom=0;right=0;" parent="44BHYda0BKMnVvwUATFj-8" vertex="1">
          <mxGeometry width="30" height="30" as="geometry">
            <mxRectangle width="30" height="30" as="alternateBounds" />
          </mxGeometry>
        </mxCell>
        <mxCell id="44BHYda0BKMnVvwUATFj-10" value="correoElectronico" style="shape=partialRectangle;overflow=hidden;connectable=0;fillColor=none;top=0;left=0;bottom=0;right=0;align=left;spacingLeft=6;" parent="44BHYda0BKMnVvwUATFj-8" vertex="1">
          <mxGeometry x="30" width="220" height="30" as="geometry">
            <mxRectangle width="220" height="30" as="alternateBounds" />
          </mxGeometry>
        </mxCell>
        <mxCell id="44BHYda0BKMnVvwUATFj-66" style="shape=partialRectangle;collapsible=0;dropTarget=0;pointerEvents=0;fillColor=none;points=[[0,0.5],[1,0.5]];portConstraint=eastwest;top=0;left=0;right=0;bottom=0;" parent="44BHYda0BKMnVvwUATFj-1" vertex="1">
          <mxGeometry y="115" width="250" height="30" as="geometry" />
        </mxCell>
        <mxCell id="44BHYda0BKMnVvwUATFj-67" style="shape=partialRectangle;overflow=hidden;connectable=0;fillColor=none;top=0;left=0;bottom=0;right=0;" parent="44BHYda0BKMnVvwUATFj-66" vertex="1">
          <mxGeometry width="30" height="30" as="geometry">
            <mxRectangle width="30" height="30" as="alternateBounds" />
          </mxGeometry>
        </mxCell>
        <mxCell id="44BHYda0BKMnVvwUATFj-68" value="passwordHash" style="shape=partialRectangle;overflow=hidden;connectable=0;fillColor=none;top=0;left=0;bottom=0;right=0;align=left;spacingLeft=6;" parent="44BHYda0BKMnVvwUATFj-66" vertex="1">
          <mxGeometry x="30" width="220" height="30" as="geometry">
            <mxRectangle width="220" height="30" as="alternateBounds" />
          </mxGeometry>
        </mxCell>
        <mxCell id="RLNbgqbNuMuGLS2s5ce6-35" style="shape=partialRectangle;collapsible=0;dropTarget=0;pointerEvents=0;fillColor=none;points=[[0,0.5],[1,0.5]];portConstraint=eastwest;top=0;left=0;right=0;bottom=0;" parent="44BHYda0BKMnVvwUATFj-1" vertex="1">
          <mxGeometry y="145" width="250" height="30" as="geometry" />
        </mxCell>
        <mxCell id="RLNbgqbNuMuGLS2s5ce6-36" value="fk" style="shape=partialRectangle;overflow=hidden;connectable=0;fillColor=none;top=0;left=0;bottom=0;right=0;" parent="RLNbgqbNuMuGLS2s5ce6-35" vertex="1">
          <mxGeometry width="30" height="30" as="geometry">
            <mxRectangle width="30" height="30" as="alternateBounds" />
          </mxGeometry>
        </mxCell>
        <mxCell id="RLNbgqbNuMuGLS2s5ce6-37" value="id_tipoUsuario" style="shape=partialRectangle;overflow=hidden;connectable=0;fillColor=none;top=0;left=0;bottom=0;right=0;align=left;spacingLeft=6;" parent="RLNbgqbNuMuGLS2s5ce6-35" vertex="1">
          <mxGeometry x="30" width="220" height="30" as="geometry">
            <mxRectangle width="220" height="30" as="alternateBounds" />
          </mxGeometry>
        </mxCell>
        <mxCell id="44BHYda0BKMnVvwUATFj-17" value="Prueba" style="shape=table;startSize=30;container=1;collapsible=1;childLayout=tableLayout;fixedRows=1;rowLines=0;fontStyle=1;align=center;resizeLast=1;fillColor=#97D077;" parent="1" vertex="1">
          <mxGeometry x="-700" y="-1960" width="250" height="490" as="geometry" />
        </mxCell>
        <mxCell id="44BHYda0BKMnVvwUATFj-18" value="" style="shape=partialRectangle;collapsible=0;dropTarget=0;pointerEvents=0;fillColor=none;points=[[0,0.5],[1,0.5]];portConstraint=eastwest;top=0;left=0;right=0;bottom=1;" parent="44BHYda0BKMnVvwUATFj-17" vertex="1">
          <mxGeometry y="30" width="250" height="30" as="geometry" />
        </mxCell>
        <mxCell id="44BHYda0BKMnVvwUATFj-19" value="PK" style="shape=partialRectangle;overflow=hidden;connectable=0;fillColor=none;top=0;left=0;bottom=0;right=0;fontStyle=1;" parent="44BHYda0BKMnVvwUATFj-18" vertex="1">
          <mxGeometry width="30" height="30" as="geometry">
            <mxRectangle width="30" height="30" as="alternateBounds" />
          </mxGeometry>
        </mxCell>
        <mxCell id="44BHYda0BKMnVvwUATFj-20" value="id_prueba" style="shape=partialRectangle;overflow=hidden;connectable=0;fillColor=none;top=0;left=0;bottom=0;right=0;align=left;spacingLeft=6;fontStyle=5;" parent="44BHYda0BKMnVvwUATFj-18" vertex="1">
          <mxGeometry x="30" width="220" height="30" as="geometry">
            <mxRectangle width="220" height="30" as="alternateBounds" />
          </mxGeometry>
        </mxCell>
        <mxCell id="44BHYda0BKMnVvwUATFj-21" value="" style="shape=partialRectangle;collapsible=0;dropTarget=0;pointerEvents=0;fillColor=none;points=[[0,0.5],[1,0.5]];portConstraint=eastwest;top=0;left=0;right=0;bottom=0;" parent="44BHYda0BKMnVvwUATFj-17" vertex="1">
          <mxGeometry y="60" width="250" height="35" as="geometry" />
        </mxCell>
        <mxCell id="44BHYda0BKMnVvwUATFj-22" value="" style="shape=partialRectangle;overflow=hidden;connectable=0;fillColor=none;top=0;left=0;bottom=0;right=0;" parent="44BHYda0BKMnVvwUATFj-21" vertex="1">
          <mxGeometry width="30" height="35" as="geometry">
            <mxRectangle width="30" height="35" as="alternateBounds" />
          </mxGeometry>
        </mxCell>
        <mxCell id="44BHYda0BKMnVvwUATFj-23" value="fechaSolicitud" style="shape=partialRectangle;overflow=hidden;connectable=0;fillColor=none;top=0;left=0;bottom=0;right=0;align=left;spacingLeft=6;" parent="44BHYda0BKMnVvwUATFj-21" vertex="1">
          <mxGeometry x="30" width="220" height="35" as="geometry">
            <mxRectangle width="220" height="35" as="alternateBounds" />
          </mxGeometry>
        </mxCell>
        <mxCell id="44BHYda0BKMnVvwUATFj-63" style="shape=partialRectangle;collapsible=0;dropTarget=0;pointerEvents=0;fillColor=none;points=[[0,0.5],[1,0.5]];portConstraint=eastwest;top=0;left=0;right=0;bottom=0;" parent="44BHYda0BKMnVvwUATFj-17" vertex="1">
          <mxGeometry y="95" width="250" height="30" as="geometry" />
        </mxCell>
        <mxCell id="44BHYda0BKMnVvwUATFj-64" style="shape=partialRectangle;overflow=hidden;connectable=0;fillColor=none;top=0;left=0;bottom=0;right=0;" parent="44BHYda0BKMnVvwUATFj-63" vertex="1">
          <mxGeometry width="30" height="30" as="geometry">
            <mxRectangle width="30" height="30" as="alternateBounds" />
          </mxGeometry>
        </mxCell>
        <mxCell id="44BHYda0BKMnVvwUATFj-65" value="fechaRespuesta" style="shape=partialRectangle;overflow=hidden;connectable=0;fillColor=none;top=0;left=0;bottom=0;right=0;align=left;spacingLeft=6;" parent="44BHYda0BKMnVvwUATFj-63" vertex="1">
          <mxGeometry x="30" width="220" height="30" as="geometry">
            <mxRectangle width="220" height="30" as="alternateBounds" />
          </mxGeometry>
        </mxCell>
        <mxCell id="2cpxHM3yIK8OX2Y2aTpp-1" style="shape=partialRectangle;collapsible=0;dropTarget=0;pointerEvents=0;fillColor=none;points=[[0,0.5],[1,0.5]];portConstraint=eastwest;top=0;left=0;right=0;bottom=0;" parent="44BHYda0BKMnVvwUATFj-17" vertex="1">
          <mxGeometry y="125" width="250" height="30" as="geometry" />
        </mxCell>
        <mxCell id="2cpxHM3yIK8OX2Y2aTpp-2" value="fk" style="shape=partialRectangle;overflow=hidden;connectable=0;fillColor=none;top=0;left=0;bottom=0;right=0;" parent="2cpxHM3yIK8OX2Y2aTpp-1" vertex="1">
          <mxGeometry width="30" height="30" as="geometry">
            <mxRectangle width="30" height="30" as="alternateBounds" />
          </mxGeometry>
        </mxCell>
        <mxCell id="2cpxHM3yIK8OX2Y2aTpp-3" value="id_estatusPrueba" style="shape=partialRectangle;overflow=hidden;connectable=0;fillColor=none;top=0;left=0;bottom=0;right=0;align=left;spacingLeft=6;" parent="2cpxHM3yIK8OX2Y2aTpp-1" vertex="1">
          <mxGeometry x="30" width="220" height="30" as="geometry">
            <mxRectangle width="220" height="30" as="alternateBounds" />
          </mxGeometry>
        </mxCell>
        <mxCell id="44BHYda0BKMnVvwUATFj-69" style="shape=partialRectangle;collapsible=0;dropTarget=0;pointerEvents=0;fillColor=none;points=[[0,0.5],[1,0.5]];portConstraint=eastwest;top=0;left=0;right=0;bottom=0;" parent="44BHYda0BKMnVvwUATFj-17" vertex="1">
          <mxGeometry y="155" width="250" height="35" as="geometry" />
        </mxCell>
        <mxCell id="44BHYda0BKMnVvwUATFj-70" style="shape=partialRectangle;overflow=hidden;connectable=0;fillColor=none;top=0;left=0;bottom=0;right=0;" parent="44BHYda0BKMnVvwUATFj-69" vertex="1">
          <mxGeometry width="30" height="35" as="geometry">
            <mxRectangle width="30" height="35" as="alternateBounds" />
          </mxGeometry>
        </mxCell>
        <mxCell id="44BHYda0BKMnVvwUATFj-71" value="ubicacionArchivos" style="shape=partialRectangle;overflow=hidden;connectable=0;fillColor=none;top=0;left=0;bottom=0;right=0;align=left;spacingLeft=6;" parent="44BHYda0BKMnVvwUATFj-69" vertex="1">
          <mxGeometry x="30" width="220" height="35" as="geometry">
            <mxRectangle width="220" height="35" as="alternateBounds" />
          </mxGeometry>
        </mxCell>
        <mxCell id="44BHYda0BKMnVvwUATFj-98" style="shape=partialRectangle;collapsible=0;dropTarget=0;pointerEvents=0;fillColor=none;points=[[0,0.5],[1,0.5]];portConstraint=eastwest;top=0;left=0;right=0;bottom=0;" parent="44BHYda0BKMnVvwUATFj-17" vertex="1">
          <mxGeometry y="190" width="250" height="30" as="geometry" />
        </mxCell>
        <mxCell id="44BHYda0BKMnVvwUATFj-99" value="fk" style="shape=partialRectangle;overflow=hidden;connectable=0;fillColor=none;top=0;left=0;bottom=0;right=0;" parent="44BHYda0BKMnVvwUATFj-98" vertex="1">
          <mxGeometry width="30" height="30" as="geometry">
            <mxRectangle width="30" height="30" as="alternateBounds" />
          </mxGeometry>
        </mxCell>
        <mxCell id="44BHYda0BKMnVvwUATFj-100" value="id_administrador" style="shape=partialRectangle;overflow=hidden;connectable=0;fillColor=none;top=0;left=0;bottom=0;right=0;align=left;spacingLeft=6;" parent="44BHYda0BKMnVvwUATFj-98" vertex="1">
          <mxGeometry x="30" width="220" height="30" as="geometry">
            <mxRectangle width="220" height="30" as="alternateBounds" />
          </mxGeometry>
        </mxCell>
        <mxCell id="44BHYda0BKMnVvwUATFj-24" style="shape=partialRectangle;collapsible=0;dropTarget=0;pointerEvents=0;fillColor=none;points=[[0,0.5],[1,0.5]];portConstraint=eastwest;top=0;left=0;right=0;bottom=0;" parent="44BHYda0BKMnVvwUATFj-17" vertex="1">
          <mxGeometry y="220" width="250" height="30" as="geometry" />
        </mxCell>
        <mxCell id="44BHYda0BKMnVvwUATFj-25" value="fk" style="shape=partialRectangle;overflow=hidden;connectable=0;fillColor=none;top=0;left=0;bottom=0;right=0;" parent="44BHYda0BKMnVvwUATFj-24" vertex="1">
          <mxGeometry width="30" height="30" as="geometry">
            <mxRectangle width="30" height="30" as="alternateBounds" />
          </mxGeometry>
        </mxCell>
        <mxCell id="44BHYda0BKMnVvwUATFj-26" value="id_solicitante" style="shape=partialRectangle;overflow=hidden;connectable=0;fillColor=none;top=0;left=0;bottom=0;right=0;align=left;spacingLeft=6;" parent="44BHYda0BKMnVvwUATFj-24" vertex="1">
          <mxGeometry x="30" width="220" height="30" as="geometry">
            <mxRectangle width="220" height="30" as="alternateBounds" />
          </mxGeometry>
        </mxCell>
        <mxCell id="44BHYda0BKMnVvwUATFj-27" style="shape=partialRectangle;collapsible=0;dropTarget=0;pointerEvents=0;fillColor=none;points=[[0,0.5],[1,0.5]];portConstraint=eastwest;top=0;left=0;right=0;bottom=0;" parent="44BHYda0BKMnVvwUATFj-17" vertex="1">
          <mxGeometry y="250" width="250" height="30" as="geometry" />
        </mxCell>
        <mxCell id="44BHYda0BKMnVvwUATFj-28" value="fk" style="shape=partialRectangle;overflow=hidden;connectable=0;fillColor=none;top=0;left=0;bottom=0;right=0;" parent="44BHYda0BKMnVvwUATFj-27" vertex="1">
          <mxGeometry width="30" height="30" as="geometry">
            <mxRectangle width="30" height="30" as="alternateBounds" />
          </mxGeometry>
        </mxCell>
        <mxCell id="44BHYda0BKMnVvwUATFj-29" value="id_laboratorista" style="shape=partialRectangle;overflow=hidden;connectable=0;fillColor=none;top=0;left=0;bottom=0;right=0;align=left;spacingLeft=6;" parent="44BHYda0BKMnVvwUATFj-27" vertex="1">
          <mxGeometry x="30" width="220" height="30" as="geometry">
            <mxRectangle width="220" height="30" as="alternateBounds" />
          </mxGeometry>
        </mxCell>
        <mxCell id="44BHYda0BKMnVvwUATFj-33" style="shape=partialRectangle;collapsible=0;dropTarget=0;pointerEvents=0;fillColor=none;points=[[0,0.5],[1,0.5]];portConstraint=eastwest;top=0;left=0;right=0;bottom=0;" parent="44BHYda0BKMnVvwUATFj-17" vertex="1">
          <mxGeometry y="280" width="250" height="30" as="geometry" />
        </mxCell>
        <mxCell id="44BHYda0BKMnVvwUATFj-34" value="fk" style="shape=partialRectangle;overflow=hidden;connectable=0;fillColor=none;top=0;left=0;bottom=0;right=0;" parent="44BHYda0BKMnVvwUATFj-33" vertex="1">
          <mxGeometry width="30" height="30" as="geometry">
            <mxRectangle width="30" height="30" as="alternateBounds" />
          </mxGeometry>
        </mxCell>
        <mxCell id="44BHYda0BKMnVvwUATFj-35" value="id_tipoPrueba" style="shape=partialRectangle;overflow=hidden;connectable=0;top=0;left=0;bottom=0;right=0;align=left;spacingLeft=6;fillColor=none;" parent="44BHYda0BKMnVvwUATFj-33" vertex="1">
          <mxGeometry x="30" width="220" height="30" as="geometry">
            <mxRectangle width="220" height="30" as="alternateBounds" />
          </mxGeometry>
        </mxCell>
        <mxCell id="g0l8fv2HCi-34N9ToXUz-27" style="shape=partialRectangle;collapsible=0;dropTarget=0;pointerEvents=0;fillColor=none;points=[[0,0.5],[1,0.5]];portConstraint=eastwest;top=0;left=0;right=0;bottom=0;" vertex="1" parent="44BHYda0BKMnVvwUATFj-17">
          <mxGeometry y="310" width="250" height="30" as="geometry" />
        </mxCell>
        <mxCell id="g0l8fv2HCi-34N9ToXUz-28" value="fk" style="shape=partialRectangle;overflow=hidden;connectable=0;fillColor=none;top=0;left=0;bottom=0;right=0;" vertex="1" parent="g0l8fv2HCi-34N9ToXUz-27">
          <mxGeometry width="30" height="30" as="geometry">
            <mxRectangle width="30" height="30" as="alternateBounds" />
          </mxGeometry>
        </mxCell>
        <mxCell id="g0l8fv2HCi-34N9ToXUz-29" value="id_pruebaEspecial" style="shape=partialRectangle;overflow=hidden;connectable=0;top=0;left=0;bottom=0;right=0;align=left;spacingLeft=6;fillColor=none;" vertex="1" parent="g0l8fv2HCi-34N9ToXUz-27">
          <mxGeometry x="30" width="220" height="30" as="geometry">
            <mxRectangle width="220" height="30" as="alternateBounds" />
          </mxGeometry>
        </mxCell>
        <mxCell id="g0l8fv2HCi-34N9ToXUz-11" style="shape=partialRectangle;collapsible=0;dropTarget=0;pointerEvents=0;fillColor=none;points=[[0,0.5],[1,0.5]];portConstraint=eastwest;top=0;left=0;right=0;bottom=0;" vertex="1" parent="44BHYda0BKMnVvwUATFj-17">
          <mxGeometry y="340" width="250" height="30" as="geometry" />
        </mxCell>
        <mxCell id="g0l8fv2HCi-34N9ToXUz-12" style="shape=partialRectangle;overflow=hidden;connectable=0;fillColor=none;top=0;left=0;bottom=0;right=0;" vertex="1" parent="g0l8fv2HCi-34N9ToXUz-11">
          <mxGeometry width="30" height="30" as="geometry">
            <mxRectangle width="30" height="30" as="alternateBounds" />
          </mxGeometry>
        </mxCell>
        <mxCell id="g0l8fv2HCi-34N9ToXUz-13" value="otroTipoEspecial" style="shape=partialRectangle;overflow=hidden;connectable=0;top=0;left=0;bottom=0;right=0;align=left;spacingLeft=6;fillColor=none;" vertex="1" parent="g0l8fv2HCi-34N9ToXUz-11">
          <mxGeometry x="30" width="220" height="30" as="geometry">
            <mxRectangle width="220" height="30" as="alternateBounds" />
          </mxGeometry>
        </mxCell>
        <mxCell id="44BHYda0BKMnVvwUATFj-45" style="shape=partialRectangle;collapsible=0;dropTarget=0;pointerEvents=0;fillColor=none;points=[[0,0.5],[1,0.5]];portConstraint=eastwest;top=0;left=0;right=0;bottom=0;" parent="44BHYda0BKMnVvwUATFj-17" vertex="1">
          <mxGeometry y="370" width="250" height="30" as="geometry" />
        </mxCell>
        <mxCell id="44BHYda0BKMnVvwUATFj-46" value="fk" style="shape=partialRectangle;overflow=hidden;connectable=0;fillColor=none;top=0;left=0;bottom=0;right=0;" parent="44BHYda0BKMnVvwUATFj-45" vertex="1">
          <mxGeometry width="30" height="30" as="geometry">
            <mxRectangle width="30" height="30" as="alternateBounds" />
          </mxGeometry>
        </mxCell>
        <mxCell id="44BHYda0BKMnVvwUATFj-47" value="id_prioridad" style="shape=partialRectangle;overflow=hidden;connectable=0;fillColor=none;top=0;left=0;bottom=0;right=0;align=left;spacingLeft=6;" parent="44BHYda0BKMnVvwUATFj-45" vertex="1">
          <mxGeometry x="30" width="220" height="30" as="geometry">
            <mxRectangle width="220" height="30" as="alternateBounds" />
          </mxGeometry>
        </mxCell>
        <mxCell id="44BHYda0BKMnVvwUATFj-51" style="shape=partialRectangle;collapsible=0;dropTarget=0;pointerEvents=0;fillColor=none;points=[[0,0.5],[1,0.5]];portConstraint=eastwest;top=0;left=0;right=0;bottom=0;" parent="44BHYda0BKMnVvwUATFj-17" vertex="1">
          <mxGeometry y="400" width="250" height="30" as="geometry" />
        </mxCell>
        <mxCell id="44BHYda0BKMnVvwUATFj-52" value="" style="shape=partialRectangle;overflow=hidden;connectable=0;fillColor=none;top=0;left=0;bottom=0;right=0;" parent="44BHYda0BKMnVvwUATFj-51" vertex="1">
          <mxGeometry width="30" height="30" as="geometry">
            <mxRectangle width="30" height="30" as="alternateBounds" />
          </mxGeometry>
        </mxCell>
        <mxCell id="44BHYda0BKMnVvwUATFj-53" value="especificaciones" style="shape=partialRectangle;overflow=hidden;connectable=0;top=0;left=0;bottom=0;right=0;align=left;spacingLeft=6;fillColor=none;" parent="44BHYda0BKMnVvwUATFj-51" vertex="1">
          <mxGeometry x="30" width="220" height="30" as="geometry">
            <mxRectangle width="220" height="30" as="alternateBounds" />
          </mxGeometry>
        </mxCell>
        <mxCell id="44BHYda0BKMnVvwUATFj-54" style="shape=partialRectangle;collapsible=0;dropTarget=0;pointerEvents=0;fillColor=none;points=[[0,0.5],[1,0.5]];portConstraint=eastwest;top=0;left=0;right=0;bottom=0;" parent="44BHYda0BKMnVvwUATFj-17" vertex="1">
          <mxGeometry y="430" width="250" height="30" as="geometry" />
        </mxCell>
        <mxCell id="44BHYda0BKMnVvwUATFj-55" value="" style="shape=partialRectangle;overflow=hidden;connectable=0;fillColor=none;top=0;left=0;bottom=0;right=0;" parent="44BHYda0BKMnVvwUATFj-54" vertex="1">
          <mxGeometry width="30" height="30" as="geometry">
            <mxRectangle width="30" height="30" as="alternateBounds" />
          </mxGeometry>
        </mxCell>
        <mxCell id="44BHYda0BKMnVvwUATFj-56" value="normaNombre" style="shape=partialRectangle;overflow=hidden;connectable=0;top=0;left=0;bottom=0;right=0;align=left;spacingLeft=6;fillColor=none;" parent="44BHYda0BKMnVvwUATFj-54" vertex="1">
          <mxGeometry x="30" width="220" height="30" as="geometry">
            <mxRectangle width="220" height="30" as="alternateBounds" />
          </mxGeometry>
        </mxCell>
        <mxCell id="iSSxnRe0BZXiFwJ4fd_c-1" style="shape=partialRectangle;collapsible=0;dropTarget=0;pointerEvents=0;fillColor=none;points=[[0,0.5],[1,0.5]];portConstraint=eastwest;top=0;left=0;right=0;bottom=0;" parent="44BHYda0BKMnVvwUATFj-17" vertex="1">
          <mxGeometry y="460" width="250" height="30" as="geometry" />
        </mxCell>
        <mxCell id="iSSxnRe0BZXiFwJ4fd_c-2" style="shape=partialRectangle;overflow=hidden;connectable=0;fillColor=none;top=0;left=0;bottom=0;right=0;" parent="iSSxnRe0BZXiFwJ4fd_c-1" vertex="1">
          <mxGeometry width="30" height="30" as="geometry">
            <mxRectangle width="30" height="30" as="alternateBounds" />
          </mxGeometry>
        </mxCell>
        <mxCell id="iSSxnRe0BZXiFwJ4fd_c-3" value="normaArchivo" style="shape=partialRectangle;overflow=hidden;connectable=0;top=0;left=0;bottom=0;right=0;align=left;spacingLeft=6;fillColor=none;" parent="iSSxnRe0BZXiFwJ4fd_c-1" vertex="1">
          <mxGeometry x="30" width="220" height="30" as="geometry">
            <mxRectangle width="220" height="30" as="alternateBounds" />
          </mxGeometry>
        </mxCell>
        <mxCell id="44BHYda0BKMnVvwUATFj-104" value="" style="edgeStyle=entityRelationEdgeStyle;fontSize=12;html=1;endArrow=ERoneToMany;rounded=0;exitX=1;exitY=0.5;exitDx=0;exitDy=0;" parent="1" source="44BHYda0BKMnVvwUATFj-2" target="44BHYda0BKMnVvwUATFj-27" edge="1">
          <mxGeometry width="100" height="100" relative="1" as="geometry">
            <mxPoint x="-860" y="-1770" as="sourcePoint" />
            <mxPoint x="-1130" y="-1915" as="targetPoint" />
          </mxGeometry>
        </mxCell>
        <mxCell id="44BHYda0BKMnVvwUATFj-123" value="" style="edgeStyle=entityRelationEdgeStyle;fontSize=12;html=1;endArrow=ERoneToMany;rounded=0;entryX=0;entryY=0.5;entryDx=0;entryDy=0;exitX=1;exitY=0.5;exitDx=0;exitDy=0;" parent="1" source="44BHYda0BKMnVvwUATFj-2" target="44BHYda0BKMnVvwUATFj-98" edge="1">
          <mxGeometry width="100" height="100" relative="1" as="geometry">
            <mxPoint x="-1320" y="-1950" as="sourcePoint" />
            <mxPoint x="-1130" y="-1725" as="targetPoint" />
          </mxGeometry>
        </mxCell>
        <mxCell id="44BHYda0BKMnVvwUATFj-165" value="" style="edgeStyle=entityRelationEdgeStyle;fontSize=12;html=1;endArrow=ERoneToMany;rounded=0;exitX=1;exitY=0.5;exitDx=0;exitDy=0;entryX=0;entryY=0.5;entryDx=0;entryDy=0;" parent="1" source="44BHYda0BKMnVvwUATFj-2" target="44BHYda0BKMnVvwUATFj-24" edge="1">
          <mxGeometry width="100" height="100" relative="1" as="geometry">
            <mxPoint x="-1080" y="-1640" as="sourcePoint" />
            <mxPoint x="-1130" y="-2105" as="targetPoint" />
          </mxGeometry>
        </mxCell>
        <mxCell id="RLNbgqbNuMuGLS2s5ce6-1" value="TipoEvaluacion" style="shape=table;startSize=30;container=1;collapsible=1;childLayout=tableLayout;fixedRows=1;rowLines=0;fontStyle=1;align=center;resizeLast=1;fillColor=#FF99FF;" parent="1" vertex="1">
          <mxGeometry y="-1790" width="250" height="100" as="geometry" />
        </mxCell>
        <mxCell id="RLNbgqbNuMuGLS2s5ce6-2" value="" style="shape=partialRectangle;collapsible=0;dropTarget=0;pointerEvents=0;fillColor=none;points=[[0,0.5],[1,0.5]];portConstraint=eastwest;top=0;left=0;right=0;bottom=1;" parent="RLNbgqbNuMuGLS2s5ce6-1" vertex="1">
          <mxGeometry y="30" width="250" height="30" as="geometry" />
        </mxCell>
        <mxCell id="RLNbgqbNuMuGLS2s5ce6-3" value="PK" style="shape=partialRectangle;overflow=hidden;connectable=0;fillColor=none;top=0;left=0;bottom=0;right=0;fontStyle=1;" parent="RLNbgqbNuMuGLS2s5ce6-2" vertex="1">
          <mxGeometry width="30" height="30" as="geometry">
            <mxRectangle width="30" height="30" as="alternateBounds" />
          </mxGeometry>
        </mxCell>
        <mxCell id="RLNbgqbNuMuGLS2s5ce6-4" value="id_tipoEvaluacion" style="shape=partialRectangle;overflow=hidden;connectable=0;fillColor=none;top=0;left=0;bottom=0;right=0;align=left;spacingLeft=6;fontStyle=5;" parent="RLNbgqbNuMuGLS2s5ce6-2" vertex="1">
          <mxGeometry x="30" width="220" height="30" as="geometry">
            <mxRectangle width="220" height="30" as="alternateBounds" />
          </mxGeometry>
        </mxCell>
        <mxCell id="RLNbgqbNuMuGLS2s5ce6-5" value="" style="shape=partialRectangle;collapsible=0;dropTarget=0;pointerEvents=0;fillColor=none;points=[[0,0.5],[1,0.5]];portConstraint=eastwest;top=0;left=0;right=0;bottom=0;" parent="RLNbgqbNuMuGLS2s5ce6-1" vertex="1">
          <mxGeometry y="60" width="250" height="30" as="geometry" />
        </mxCell>
        <mxCell id="RLNbgqbNuMuGLS2s5ce6-6" value="" style="shape=partialRectangle;overflow=hidden;connectable=0;fillColor=none;top=0;left=0;bottom=0;right=0;" parent="RLNbgqbNuMuGLS2s5ce6-5" vertex="1">
          <mxGeometry width="30" height="30" as="geometry">
            <mxRectangle width="30" height="30" as="alternateBounds" />
          </mxGeometry>
        </mxCell>
        <mxCell id="RLNbgqbNuMuGLS2s5ce6-7" value="descripcionEvaluacion" style="shape=partialRectangle;overflow=hidden;connectable=0;fillColor=none;top=0;left=0;bottom=0;right=0;align=left;spacingLeft=6;" parent="RLNbgqbNuMuGLS2s5ce6-5" vertex="1">
          <mxGeometry x="30" width="220" height="30" as="geometry">
            <mxRectangle width="220" height="30" as="alternateBounds" />
          </mxGeometry>
        </mxCell>
        <mxCell id="RLNbgqbNuMuGLS2s5ce6-16" value="Plataforma" style="shape=table;startSize=30;container=1;collapsible=1;childLayout=tableLayout;fixedRows=1;rowLines=0;fontStyle=1;align=center;resizeLast=1;fillColor=#FF99FF;" parent="1" vertex="1">
          <mxGeometry x="-1070" y="-1430" width="250" height="130" as="geometry" />
        </mxCell>
        <mxCell id="RLNbgqbNuMuGLS2s5ce6-17" value="" style="shape=partialRectangle;collapsible=0;dropTarget=0;pointerEvents=0;fillColor=none;points=[[0,0.5],[1,0.5]];portConstraint=eastwest;top=0;left=0;right=0;bottom=1;" parent="RLNbgqbNuMuGLS2s5ce6-16" vertex="1">
          <mxGeometry y="30" width="250" height="30" as="geometry" />
        </mxCell>
        <mxCell id="RLNbgqbNuMuGLS2s5ce6-18" value="PK" style="shape=partialRectangle;overflow=hidden;connectable=0;fillColor=none;top=0;left=0;bottom=0;right=0;fontStyle=1;" parent="RLNbgqbNuMuGLS2s5ce6-17" vertex="1">
          <mxGeometry width="30" height="30" as="geometry">
            <mxRectangle width="30" height="30" as="alternateBounds" />
          </mxGeometry>
        </mxCell>
        <mxCell id="RLNbgqbNuMuGLS2s5ce6-19" value="id_plataforma" style="shape=partialRectangle;overflow=hidden;connectable=0;fillColor=none;top=0;left=0;bottom=0;right=0;align=left;spacingLeft=6;fontStyle=5;" parent="RLNbgqbNuMuGLS2s5ce6-17" vertex="1">
          <mxGeometry x="30" width="220" height="30" as="geometry">
            <mxRectangle width="220" height="30" as="alternateBounds" />
          </mxGeometry>
        </mxCell>
        <mxCell id="RLNbgqbNuMuGLS2s5ce6-20" value="" style="shape=partialRectangle;collapsible=0;dropTarget=0;pointerEvents=0;fillColor=none;points=[[0,0.5],[1,0.5]];portConstraint=eastwest;top=0;left=0;right=0;bottom=0;" parent="RLNbgqbNuMuGLS2s5ce6-16" vertex="1">
          <mxGeometry y="60" width="250" height="30" as="geometry" />
        </mxCell>
        <mxCell id="RLNbgqbNuMuGLS2s5ce6-21" value="" style="shape=partialRectangle;overflow=hidden;connectable=0;fillColor=none;top=0;left=0;bottom=0;right=0;" parent="RLNbgqbNuMuGLS2s5ce6-20" vertex="1">
          <mxGeometry width="30" height="30" as="geometry">
            <mxRectangle width="30" height="30" as="alternateBounds" />
          </mxGeometry>
        </mxCell>
        <mxCell id="RLNbgqbNuMuGLS2s5ce6-22" value="descripcionPlataforma" style="shape=partialRectangle;overflow=hidden;connectable=0;fillColor=none;top=0;left=0;bottom=0;right=0;align=left;spacingLeft=6;" parent="RLNbgqbNuMuGLS2s5ce6-20" vertex="1">
          <mxGeometry x="30" width="220" height="30" as="geometry">
            <mxRectangle width="220" height="30" as="alternateBounds" />
          </mxGeometry>
        </mxCell>
        <mxCell id="rrZAhegM9poQaYea05o--23" style="shape=partialRectangle;collapsible=0;dropTarget=0;pointerEvents=0;fillColor=none;points=[[0,0.5],[1,0.5]];portConstraint=eastwest;top=0;left=0;right=0;bottom=0;" parent="RLNbgqbNuMuGLS2s5ce6-16" vertex="1">
          <mxGeometry y="90" width="250" height="30" as="geometry" />
        </mxCell>
        <mxCell id="rrZAhegM9poQaYea05o--24" value="fk" style="shape=partialRectangle;overflow=hidden;connectable=0;fillColor=none;top=0;left=0;bottom=0;right=0;" parent="rrZAhegM9poQaYea05o--23" vertex="1">
          <mxGeometry width="30" height="30" as="geometry">
            <mxRectangle width="30" height="30" as="alternateBounds" />
          </mxGeometry>
        </mxCell>
        <mxCell id="rrZAhegM9poQaYea05o--25" value="id_cliente" style="shape=partialRectangle;overflow=hidden;connectable=0;fillColor=none;top=0;left=0;bottom=0;right=0;align=left;spacingLeft=6;" parent="rrZAhegM9poQaYea05o--23" vertex="1">
          <mxGeometry x="30" width="220" height="30" as="geometry">
            <mxRectangle width="220" height="30" as="alternateBounds" />
          </mxGeometry>
        </mxCell>
        <mxCell id="RLNbgqbNuMuGLS2s5ce6-38" value="TipoUsuario" style="shape=table;startSize=30;container=1;collapsible=1;childLayout=tableLayout;fixedRows=1;rowLines=0;fontStyle=1;align=center;resizeLast=1;fillColor=#FF99FF;" parent="1" vertex="1">
          <mxGeometry x="-1400" y="-1880" width="250" height="100" as="geometry" />
        </mxCell>
        <mxCell id="RLNbgqbNuMuGLS2s5ce6-39" value="" style="shape=partialRectangle;collapsible=0;dropTarget=0;pointerEvents=0;fillColor=none;points=[[0,0.5],[1,0.5]];portConstraint=eastwest;top=0;left=0;right=0;bottom=1;" parent="RLNbgqbNuMuGLS2s5ce6-38" vertex="1">
          <mxGeometry y="30" width="250" height="30" as="geometry" />
        </mxCell>
        <mxCell id="RLNbgqbNuMuGLS2s5ce6-40" value="PK" style="shape=partialRectangle;overflow=hidden;connectable=0;fillColor=none;top=0;left=0;bottom=0;right=0;fontStyle=1;" parent="RLNbgqbNuMuGLS2s5ce6-39" vertex="1">
          <mxGeometry width="30" height="30" as="geometry">
            <mxRectangle width="30" height="30" as="alternateBounds" />
          </mxGeometry>
        </mxCell>
        <mxCell id="RLNbgqbNuMuGLS2s5ce6-41" value="id_tipoUsuario" style="shape=partialRectangle;overflow=hidden;connectable=0;fillColor=none;top=0;left=0;bottom=0;right=0;align=left;spacingLeft=6;fontStyle=5;" parent="RLNbgqbNuMuGLS2s5ce6-39" vertex="1">
          <mxGeometry x="30" width="220" height="30" as="geometry">
            <mxRectangle width="220" height="30" as="alternateBounds" />
          </mxGeometry>
        </mxCell>
        <mxCell id="RLNbgqbNuMuGLS2s5ce6-42" value="" style="shape=partialRectangle;collapsible=0;dropTarget=0;pointerEvents=0;fillColor=none;points=[[0,0.5],[1,0.5]];portConstraint=eastwest;top=0;left=0;right=0;bottom=0;" parent="RLNbgqbNuMuGLS2s5ce6-38" vertex="1">
          <mxGeometry y="60" width="250" height="30" as="geometry" />
        </mxCell>
        <mxCell id="RLNbgqbNuMuGLS2s5ce6-43" value="" style="shape=partialRectangle;overflow=hidden;connectable=0;fillColor=none;top=0;left=0;bottom=0;right=0;" parent="RLNbgqbNuMuGLS2s5ce6-42" vertex="1">
          <mxGeometry width="30" height="30" as="geometry">
            <mxRectangle width="30" height="30" as="alternateBounds" />
          </mxGeometry>
        </mxCell>
        <mxCell id="RLNbgqbNuMuGLS2s5ce6-44" value="descripcionUsuario" style="shape=partialRectangle;overflow=hidden;connectable=0;fillColor=none;top=0;left=0;bottom=0;right=0;align=left;spacingLeft=6;" parent="RLNbgqbNuMuGLS2s5ce6-42" vertex="1">
          <mxGeometry x="30" width="220" height="30" as="geometry">
            <mxRectangle width="220" height="30" as="alternateBounds" />
          </mxGeometry>
        </mxCell>
        <mxCell id="RLNbgqbNuMuGLS2s5ce6-46" value="Prioridad" style="shape=table;startSize=30;container=1;collapsible=1;childLayout=tableLayout;fixedRows=1;rowLines=0;fontStyle=1;align=center;resizeLast=1;fillColor=#FF99FF;" parent="1" vertex="1">
          <mxGeometry x="-1070" y="-1620" width="250" height="130" as="geometry" />
        </mxCell>
        <mxCell id="RLNbgqbNuMuGLS2s5ce6-47" value="" style="shape=partialRectangle;collapsible=0;dropTarget=0;pointerEvents=0;fillColor=none;points=[[0,0.5],[1,0.5]];portConstraint=eastwest;top=0;left=0;right=0;bottom=1;" parent="RLNbgqbNuMuGLS2s5ce6-46" vertex="1">
          <mxGeometry y="30" width="250" height="30" as="geometry" />
        </mxCell>
        <mxCell id="RLNbgqbNuMuGLS2s5ce6-48" value="PK" style="shape=partialRectangle;overflow=hidden;connectable=0;fillColor=none;top=0;left=0;bottom=0;right=0;fontStyle=1;" parent="RLNbgqbNuMuGLS2s5ce6-47" vertex="1">
          <mxGeometry width="30" height="30" as="geometry">
            <mxRectangle width="30" height="30" as="alternateBounds" />
          </mxGeometry>
        </mxCell>
        <mxCell id="RLNbgqbNuMuGLS2s5ce6-49" value="id_prioridad" style="shape=partialRectangle;overflow=hidden;connectable=0;fillColor=none;top=0;left=0;bottom=0;right=0;align=left;spacingLeft=6;fontStyle=5;" parent="RLNbgqbNuMuGLS2s5ce6-47" vertex="1">
          <mxGeometry x="30" width="220" height="30" as="geometry">
            <mxRectangle width="220" height="30" as="alternateBounds" />
          </mxGeometry>
        </mxCell>
        <mxCell id="RLNbgqbNuMuGLS2s5ce6-50" value="" style="shape=partialRectangle;collapsible=0;dropTarget=0;pointerEvents=0;fillColor=none;points=[[0,0.5],[1,0.5]];portConstraint=eastwest;top=0;left=0;right=0;bottom=0;" parent="RLNbgqbNuMuGLS2s5ce6-46" vertex="1">
          <mxGeometry y="60" width="250" height="30" as="geometry" />
        </mxCell>
        <mxCell id="RLNbgqbNuMuGLS2s5ce6-51" value="" style="shape=partialRectangle;overflow=hidden;connectable=0;fillColor=none;top=0;left=0;bottom=0;right=0;" parent="RLNbgqbNuMuGLS2s5ce6-50" vertex="1">
          <mxGeometry width="30" height="30" as="geometry">
            <mxRectangle width="30" height="30" as="alternateBounds" />
          </mxGeometry>
        </mxCell>
        <mxCell id="RLNbgqbNuMuGLS2s5ce6-52" value="descripcionPrioridad" style="shape=partialRectangle;overflow=hidden;connectable=0;fillColor=none;top=0;left=0;bottom=0;right=0;align=left;spacingLeft=6;" parent="RLNbgqbNuMuGLS2s5ce6-50" vertex="1">
          <mxGeometry x="30" width="220" height="30" as="geometry">
            <mxRectangle width="220" height="30" as="alternateBounds" />
          </mxGeometry>
        </mxCell>
        <mxCell id="NV7ffGwy70YMcMXZRiGU-9" style="shape=partialRectangle;collapsible=0;dropTarget=0;pointerEvents=0;fillColor=none;points=[[0,0.5],[1,0.5]];portConstraint=eastwest;top=0;left=0;right=0;bottom=0;" parent="RLNbgqbNuMuGLS2s5ce6-46" vertex="1">
          <mxGeometry y="90" width="250" height="30" as="geometry" />
        </mxCell>
        <mxCell id="NV7ffGwy70YMcMXZRiGU-10" style="shape=partialRectangle;overflow=hidden;connectable=0;fillColor=none;top=0;left=0;bottom=0;right=0;" parent="NV7ffGwy70YMcMXZRiGU-9" vertex="1">
          <mxGeometry width="30" height="30" as="geometry">
            <mxRectangle width="30" height="30" as="alternateBounds" />
          </mxGeometry>
        </mxCell>
        <mxCell id="NV7ffGwy70YMcMXZRiGU-11" value="detallesPrioridad" style="shape=partialRectangle;overflow=hidden;connectable=0;fillColor=none;top=0;left=0;bottom=0;right=0;align=left;spacingLeft=6;" parent="NV7ffGwy70YMcMXZRiGU-9" vertex="1">
          <mxGeometry x="30" width="220" height="30" as="geometry">
            <mxRectangle width="220" height="30" as="alternateBounds" />
          </mxGeometry>
        </mxCell>
        <mxCell id="6cUuBf5ojsHln4f6jNpu-27" value="" style="edgeStyle=orthogonalEdgeStyle;fontSize=12;html=1;endArrow=ERoneToMany;rounded=0;exitX=1;exitY=0.5;exitDx=0;exitDy=0;entryX=0;entryY=0.5;entryDx=0;entryDy=0;" parent="1" source="rrZAhegM9poQaYea05o--1" target="rrZAhegM9poQaYea05o--23" edge="1">
          <mxGeometry width="100" height="100" relative="1" as="geometry">
            <mxPoint x="-1210" y="-1350.0000000000002" as="sourcePoint" />
            <mxPoint x="-1060" y="-1230.0000000000002" as="targetPoint" />
          </mxGeometry>
        </mxCell>
        <mxCell id="2cpxHM3yIK8OX2Y2aTpp-4" value="EstatusPrueba" style="shape=table;startSize=30;container=1;collapsible=1;childLayout=tableLayout;fixedRows=1;rowLines=0;fontStyle=1;align=center;resizeLast=1;fillColor=#FF99FF;" parent="1" vertex="1">
          <mxGeometry x="-330" y="-1960" width="250" height="130" as="geometry" />
        </mxCell>
        <mxCell id="2cpxHM3yIK8OX2Y2aTpp-5" value="" style="shape=partialRectangle;collapsible=0;dropTarget=0;pointerEvents=0;fillColor=none;points=[[0,0.5],[1,0.5]];portConstraint=eastwest;top=0;left=0;right=0;bottom=1;" parent="2cpxHM3yIK8OX2Y2aTpp-4" vertex="1">
          <mxGeometry y="30" width="250" height="30" as="geometry" />
        </mxCell>
        <mxCell id="2cpxHM3yIK8OX2Y2aTpp-6" value="PK" style="shape=partialRectangle;overflow=hidden;connectable=0;fillColor=none;top=0;left=0;bottom=0;right=0;fontStyle=1;" parent="2cpxHM3yIK8OX2Y2aTpp-5" vertex="1">
          <mxGeometry width="30" height="30" as="geometry">
            <mxRectangle width="30" height="30" as="alternateBounds" />
          </mxGeometry>
        </mxCell>
        <mxCell id="2cpxHM3yIK8OX2Y2aTpp-7" value="id_estatusPrueba" style="shape=partialRectangle;overflow=hidden;connectable=0;fillColor=none;top=0;left=0;bottom=0;right=0;align=left;spacingLeft=6;fontStyle=5;" parent="2cpxHM3yIK8OX2Y2aTpp-5" vertex="1">
          <mxGeometry x="30" width="220" height="30" as="geometry">
            <mxRectangle width="220" height="30" as="alternateBounds" />
          </mxGeometry>
        </mxCell>
        <mxCell id="2cpxHM3yIK8OX2Y2aTpp-8" value="" style="shape=partialRectangle;collapsible=0;dropTarget=0;pointerEvents=0;fillColor=none;points=[[0,0.5],[1,0.5]];portConstraint=eastwest;top=0;left=0;right=0;bottom=0;" parent="2cpxHM3yIK8OX2Y2aTpp-4" vertex="1">
          <mxGeometry y="60" width="250" height="30" as="geometry" />
        </mxCell>
        <mxCell id="2cpxHM3yIK8OX2Y2aTpp-9" value="" style="shape=partialRectangle;overflow=hidden;connectable=0;fillColor=none;top=0;left=0;bottom=0;right=0;" parent="2cpxHM3yIK8OX2Y2aTpp-8" vertex="1">
          <mxGeometry width="30" height="30" as="geometry">
            <mxRectangle width="30" height="30" as="alternateBounds" />
          </mxGeometry>
        </mxCell>
        <mxCell id="2cpxHM3yIK8OX2Y2aTpp-10" value="descripcionEstatus" style="shape=partialRectangle;overflow=hidden;connectable=0;fillColor=none;top=0;left=0;bottom=0;right=0;align=left;spacingLeft=6;" parent="2cpxHM3yIK8OX2Y2aTpp-8" vertex="1">
          <mxGeometry x="30" width="220" height="30" as="geometry">
            <mxRectangle width="220" height="30" as="alternateBounds" />
          </mxGeometry>
        </mxCell>
        <mxCell id="NV7ffGwy70YMcMXZRiGU-3" style="shape=partialRectangle;collapsible=0;dropTarget=0;pointerEvents=0;fillColor=none;points=[[0,0.5],[1,0.5]];portConstraint=eastwest;top=0;left=0;right=0;bottom=0;" parent="2cpxHM3yIK8OX2Y2aTpp-4" vertex="1">
          <mxGeometry y="90" width="250" height="30" as="geometry" />
        </mxCell>
        <mxCell id="NV7ffGwy70YMcMXZRiGU-4" style="shape=partialRectangle;overflow=hidden;connectable=0;fillColor=none;top=0;left=0;bottom=0;right=0;" parent="NV7ffGwy70YMcMXZRiGU-3" vertex="1">
          <mxGeometry width="30" height="30" as="geometry">
            <mxRectangle width="30" height="30" as="alternateBounds" />
          </mxGeometry>
        </mxCell>
        <mxCell id="NV7ffGwy70YMcMXZRiGU-5" value="detallesEstatus" style="shape=partialRectangle;overflow=hidden;connectable=0;fillColor=none;top=0;left=0;bottom=0;right=0;align=left;spacingLeft=6;" parent="NV7ffGwy70YMcMXZRiGU-3" vertex="1">
          <mxGeometry x="30" width="220" height="30" as="geometry">
            <mxRectangle width="220" height="30" as="alternateBounds" />
          </mxGeometry>
        </mxCell>
        <mxCell id="2cpxHM3yIK8OX2Y2aTpp-11" value="" style="edgeStyle=entityRelationEdgeStyle;fontSize=12;html=1;endArrow=ERoneToMany;rounded=0;exitX=0;exitY=0.5;exitDx=0;exitDy=0;entryX=1;entryY=0.5;entryDx=0;entryDy=0;" parent="1" source="2cpxHM3yIK8OX2Y2aTpp-5" target="2cpxHM3yIK8OX2Y2aTpp-1" edge="1">
          <mxGeometry width="100" height="100" relative="1" as="geometry">
            <mxPoint x="-920" y="-1590" as="sourcePoint" />
            <mxPoint x="-820" y="-1690" as="targetPoint" />
          </mxGeometry>
        </mxCell>
        <mxCell id="2cpxHM3yIK8OX2Y2aTpp-23" value="" style="edgeStyle=entityRelationEdgeStyle;fontSize=12;html=1;endArrow=ERoneToMany;rounded=0;exitX=1;exitY=0.5;exitDx=0;exitDy=0;" parent="1" source="RLNbgqbNuMuGLS2s5ce6-39" target="RLNbgqbNuMuGLS2s5ce6-35" edge="1">
          <mxGeometry width="100" height="100" relative="1" as="geometry">
            <mxPoint x="-1250" y="-1740" as="sourcePoint" />
            <mxPoint x="-1150" y="-1840" as="targetPoint" />
          </mxGeometry>
        </mxCell>
        <mxCell id="2cpxHM3yIK8OX2Y2aTpp-26" value="" style="edgeStyle=entityRelationEdgeStyle;fontSize=12;html=1;endArrow=ERoneToMany;rounded=0;entryX=0;entryY=0.5;entryDx=0;entryDy=0;exitX=1.001;exitY=0.134;exitDx=0;exitDy=0;exitPerimeter=0;" parent="1" source="RLNbgqbNuMuGLS2s5ce6-46" target="44BHYda0BKMnVvwUATFj-45" edge="1">
          <mxGeometry width="100" height="100" relative="1" as="geometry">
            <mxPoint x="-1120" y="-1410" as="sourcePoint" />
            <mxPoint x="-1020" y="-1510" as="targetPoint" />
          </mxGeometry>
        </mxCell>
        <mxCell id="2cpxHM3yIK8OX2Y2aTpp-27" value="" style="edgeStyle=entityRelationEdgeStyle;fontSize=12;html=1;endArrow=ERoneToMany;rounded=0;exitX=0;exitY=0.5;exitDx=0;exitDy=0;" parent="1" source="2cpxHM3yIK8OX2Y2aTpp-63" target="44BHYda0BKMnVvwUATFj-33" edge="1">
          <mxGeometry width="100" height="100" relative="1" as="geometry">
            <mxPoint x="-475" y="-1490" as="sourcePoint" />
            <mxPoint x="-375" y="-1590" as="targetPoint" />
          </mxGeometry>
        </mxCell>
        <mxCell id="2cpxHM3yIK8OX2Y2aTpp-29" value="Material" style="shape=table;startSize=30;container=1;collapsible=1;childLayout=tableLayout;fixedRows=1;rowLines=0;fontStyle=1;align=center;resizeLast=1;fillColor=#97D077;" parent="1" vertex="1">
          <mxGeometry x="-330" y="-1430" width="250" height="190" as="geometry" />
        </mxCell>
        <mxCell id="2cpxHM3yIK8OX2Y2aTpp-30" value="" style="shape=partialRectangle;collapsible=0;dropTarget=0;pointerEvents=0;fillColor=none;points=[[0,0.5],[1,0.5]];portConstraint=eastwest;top=0;left=0;right=0;bottom=1;" parent="2cpxHM3yIK8OX2Y2aTpp-29" vertex="1">
          <mxGeometry y="30" width="250" height="30" as="geometry" />
        </mxCell>
        <mxCell id="2cpxHM3yIK8OX2Y2aTpp-31" value="PK" style="shape=partialRectangle;overflow=hidden;connectable=0;fillColor=none;top=0;left=0;bottom=0;right=0;fontStyle=1;" parent="2cpxHM3yIK8OX2Y2aTpp-30" vertex="1">
          <mxGeometry width="30" height="30" as="geometry">
            <mxRectangle width="30" height="30" as="alternateBounds" />
          </mxGeometry>
        </mxCell>
        <mxCell id="2cpxHM3yIK8OX2Y2aTpp-32" value="id_prueba" style="shape=partialRectangle;overflow=hidden;connectable=0;fillColor=none;top=0;left=0;bottom=0;right=0;align=left;spacingLeft=6;fontStyle=5;" parent="2cpxHM3yIK8OX2Y2aTpp-30" vertex="1">
          <mxGeometry x="30" width="220" height="30" as="geometry">
            <mxRectangle width="220" height="30" as="alternateBounds" />
          </mxGeometry>
        </mxCell>
        <mxCell id="2cpxHM3yIK8OX2Y2aTpp-33" value="" style="shape=partialRectangle;collapsible=0;dropTarget=0;pointerEvents=0;fillColor=none;points=[[0,0.5],[1,0.5]];portConstraint=eastwest;top=0;left=0;right=0;bottom=0;" parent="2cpxHM3yIK8OX2Y2aTpp-29" vertex="1">
          <mxGeometry y="60" width="250" height="30" as="geometry" />
        </mxCell>
        <mxCell id="2cpxHM3yIK8OX2Y2aTpp-34" value="" style="shape=partialRectangle;overflow=hidden;connectable=0;fillColor=none;top=0;left=0;bottom=0;right=0;" parent="2cpxHM3yIK8OX2Y2aTpp-33" vertex="1">
          <mxGeometry width="30" height="30" as="geometry">
            <mxRectangle width="30" height="30" as="alternateBounds" />
          </mxGeometry>
        </mxCell>
        <mxCell id="2cpxHM3yIK8OX2Y2aTpp-35" value="numDeParte" style="shape=partialRectangle;overflow=hidden;connectable=0;fillColor=none;top=0;left=0;bottom=0;right=0;align=left;spacingLeft=6;" parent="2cpxHM3yIK8OX2Y2aTpp-33" vertex="1">
          <mxGeometry x="30" width="220" height="30" as="geometry">
            <mxRectangle width="220" height="30" as="alternateBounds" />
          </mxGeometry>
        </mxCell>
        <mxCell id="2cpxHM3yIK8OX2Y2aTpp-43" style="shape=partialRectangle;collapsible=0;dropTarget=0;pointerEvents=0;fillColor=none;points=[[0,0.5],[1,0.5]];portConstraint=eastwest;top=0;left=0;right=0;bottom=0;" parent="2cpxHM3yIK8OX2Y2aTpp-29" vertex="1">
          <mxGeometry y="90" width="250" height="30" as="geometry" />
        </mxCell>
        <mxCell id="2cpxHM3yIK8OX2Y2aTpp-44" style="shape=partialRectangle;overflow=hidden;connectable=0;fillColor=none;top=0;left=0;bottom=0;right=0;" parent="2cpxHM3yIK8OX2Y2aTpp-43" vertex="1">
          <mxGeometry width="30" height="30" as="geometry">
            <mxRectangle width="30" height="30" as="alternateBounds" />
          </mxGeometry>
        </mxCell>
        <mxCell id="2cpxHM3yIK8OX2Y2aTpp-45" value="cantidad" style="shape=partialRectangle;overflow=hidden;connectable=0;fillColor=none;top=0;left=0;bottom=0;right=0;align=left;spacingLeft=6;" parent="2cpxHM3yIK8OX2Y2aTpp-43" vertex="1">
          <mxGeometry x="30" width="220" height="30" as="geometry">
            <mxRectangle width="220" height="30" as="alternateBounds" />
          </mxGeometry>
        </mxCell>
        <mxCell id="rrZAhegM9poQaYea05o--16" style="shape=partialRectangle;collapsible=0;dropTarget=0;pointerEvents=0;fillColor=none;points=[[0,0.5],[1,0.5]];portConstraint=eastwest;top=0;left=0;right=0;bottom=0;" parent="2cpxHM3yIK8OX2Y2aTpp-29" vertex="1">
          <mxGeometry y="120" width="250" height="30" as="geometry" />
        </mxCell>
        <mxCell id="rrZAhegM9poQaYea05o--17" value="fk" style="shape=partialRectangle;overflow=hidden;connectable=0;fillColor=none;top=0;left=0;bottom=0;right=0;" parent="rrZAhegM9poQaYea05o--16" vertex="1">
          <mxGeometry width="30" height="30" as="geometry">
            <mxRectangle width="30" height="30" as="alternateBounds" />
          </mxGeometry>
        </mxCell>
        <mxCell id="rrZAhegM9poQaYea05o--18" value="id_descripcion" style="shape=partialRectangle;overflow=hidden;connectable=0;fillColor=none;top=0;left=0;bottom=0;right=0;align=left;spacingLeft=6;" parent="rrZAhegM9poQaYea05o--16" vertex="1">
          <mxGeometry x="30" width="220" height="30" as="geometry">
            <mxRectangle width="220" height="30" as="alternateBounds" />
          </mxGeometry>
        </mxCell>
        <mxCell id="a0VpjXME5o4B1FIBBxLr-1" style="shape=partialRectangle;collapsible=0;dropTarget=0;pointerEvents=0;fillColor=none;points=[[0,0.5],[1,0.5]];portConstraint=eastwest;top=0;left=0;right=0;bottom=0;" parent="2cpxHM3yIK8OX2Y2aTpp-29" vertex="1">
          <mxGeometry y="150" width="250" height="30" as="geometry" />
        </mxCell>
        <mxCell id="a0VpjXME5o4B1FIBBxLr-2" value="fk" style="shape=partialRectangle;overflow=hidden;connectable=0;fillColor=none;top=0;left=0;bottom=0;right=0;" parent="a0VpjXME5o4B1FIBBxLr-1" vertex="1">
          <mxGeometry width="30" height="30" as="geometry">
            <mxRectangle width="30" height="30" as="alternateBounds" />
          </mxGeometry>
        </mxCell>
        <mxCell id="a0VpjXME5o4B1FIBBxLr-3" value="id_estatusMaterial" style="shape=partialRectangle;overflow=hidden;connectable=0;fillColor=none;top=0;left=0;bottom=0;right=0;align=left;spacingLeft=6;" parent="a0VpjXME5o4B1FIBBxLr-1" vertex="1">
          <mxGeometry x="30" width="220" height="30" as="geometry">
            <mxRectangle width="220" height="30" as="alternateBounds" />
          </mxGeometry>
        </mxCell>
        <mxCell id="2cpxHM3yIK8OX2Y2aTpp-36" value="" style="edgeStyle=entityRelationEdgeStyle;fontSize=12;html=1;endArrow=ERoneToMany;rounded=0;" parent="1" source="44BHYda0BKMnVvwUATFj-18" target="2cpxHM3yIK8OX2Y2aTpp-30" edge="1">
          <mxGeometry width="100" height="100" relative="1" as="geometry">
            <mxPoint x="-450" y="-1350" as="sourcePoint" />
            <mxPoint x="-340" y="-1455" as="targetPoint" />
            <Array as="points">
              <mxPoint x="-410" y="-1630" />
              <mxPoint x="-410" y="-1630" />
            </Array>
          </mxGeometry>
        </mxCell>
        <mxCell id="2cpxHM3yIK8OX2Y2aTpp-53" value="EstatusMaterial" style="shape=table;startSize=30;container=1;collapsible=1;childLayout=tableLayout;fixedRows=1;rowLines=0;fontStyle=1;align=center;resizeLast=1;fillColor=#FF99FF;" parent="1" vertex="1">
          <mxGeometry y="-1430" width="250" height="130" as="geometry" />
        </mxCell>
        <mxCell id="2cpxHM3yIK8OX2Y2aTpp-54" value="" style="shape=partialRectangle;collapsible=0;dropTarget=0;pointerEvents=0;fillColor=none;points=[[0,0.5],[1,0.5]];portConstraint=eastwest;top=0;left=0;right=0;bottom=1;" parent="2cpxHM3yIK8OX2Y2aTpp-53" vertex="1">
          <mxGeometry y="30" width="250" height="30" as="geometry" />
        </mxCell>
        <mxCell id="2cpxHM3yIK8OX2Y2aTpp-55" value="PK" style="shape=partialRectangle;overflow=hidden;connectable=0;fillColor=none;top=0;left=0;bottom=0;right=0;fontStyle=1;" parent="2cpxHM3yIK8OX2Y2aTpp-54" vertex="1">
          <mxGeometry width="30" height="30" as="geometry">
            <mxRectangle width="30" height="30" as="alternateBounds" />
          </mxGeometry>
        </mxCell>
        <mxCell id="2cpxHM3yIK8OX2Y2aTpp-56" value="id_estatusMaterial" style="shape=partialRectangle;overflow=hidden;connectable=0;fillColor=none;top=0;left=0;bottom=0;right=0;align=left;spacingLeft=6;fontStyle=5;" parent="2cpxHM3yIK8OX2Y2aTpp-54" vertex="1">
          <mxGeometry x="30" width="220" height="30" as="geometry">
            <mxRectangle width="220" height="30" as="alternateBounds" />
          </mxGeometry>
        </mxCell>
        <mxCell id="2cpxHM3yIK8OX2Y2aTpp-57" value="" style="shape=partialRectangle;collapsible=0;dropTarget=0;pointerEvents=0;fillColor=none;points=[[0,0.5],[1,0.5]];portConstraint=eastwest;top=0;left=0;right=0;bottom=0;" parent="2cpxHM3yIK8OX2Y2aTpp-53" vertex="1">
          <mxGeometry y="60" width="250" height="30" as="geometry" />
        </mxCell>
        <mxCell id="2cpxHM3yIK8OX2Y2aTpp-58" value="" style="shape=partialRectangle;overflow=hidden;connectable=0;fillColor=none;top=0;left=0;bottom=0;right=0;" parent="2cpxHM3yIK8OX2Y2aTpp-57" vertex="1">
          <mxGeometry width="30" height="30" as="geometry">
            <mxRectangle width="30" height="30" as="alternateBounds" />
          </mxGeometry>
        </mxCell>
        <mxCell id="2cpxHM3yIK8OX2Y2aTpp-59" value="descripcionEstatus" style="shape=partialRectangle;overflow=hidden;connectable=0;fillColor=none;top=0;left=0;bottom=0;right=0;align=left;spacingLeft=6;" parent="2cpxHM3yIK8OX2Y2aTpp-57" vertex="1">
          <mxGeometry x="30" width="220" height="30" as="geometry">
            <mxRectangle width="220" height="30" as="alternateBounds" />
          </mxGeometry>
        </mxCell>
        <mxCell id="NV7ffGwy70YMcMXZRiGU-6" style="shape=partialRectangle;collapsible=0;dropTarget=0;pointerEvents=0;fillColor=none;points=[[0,0.5],[1,0.5]];portConstraint=eastwest;top=0;left=0;right=0;bottom=0;" parent="2cpxHM3yIK8OX2Y2aTpp-53" vertex="1">
          <mxGeometry y="90" width="250" height="30" as="geometry" />
        </mxCell>
        <mxCell id="NV7ffGwy70YMcMXZRiGU-7" style="shape=partialRectangle;overflow=hidden;connectable=0;fillColor=none;top=0;left=0;bottom=0;right=0;" parent="NV7ffGwy70YMcMXZRiGU-6" vertex="1">
          <mxGeometry width="30" height="30" as="geometry">
            <mxRectangle width="30" height="30" as="alternateBounds" />
          </mxGeometry>
        </mxCell>
        <mxCell id="NV7ffGwy70YMcMXZRiGU-8" value="detallesEstatus" style="shape=partialRectangle;overflow=hidden;connectable=0;fillColor=none;top=0;left=0;bottom=0;right=0;align=left;spacingLeft=6;" parent="NV7ffGwy70YMcMXZRiGU-6" vertex="1">
          <mxGeometry x="30" width="220" height="30" as="geometry">
            <mxRectangle width="220" height="30" as="alternateBounds" />
          </mxGeometry>
        </mxCell>
        <mxCell id="2cpxHM3yIK8OX2Y2aTpp-61" value="" style="edgeStyle=orthogonalEdgeStyle;fontSize=12;html=1;endArrow=ERoneToMany;rounded=0;exitX=0;exitY=0.5;exitDx=0;exitDy=0;" parent="1" source="2cpxHM3yIK8OX2Y2aTpp-54" target="a0VpjXME5o4B1FIBBxLr-1" edge="1">
          <mxGeometry width="100" height="100" relative="1" as="geometry">
            <mxPoint x="-390" y="-1350" as="sourcePoint" />
            <mxPoint x="-430" y="-1050" as="targetPoint" />
          </mxGeometry>
        </mxCell>
        <mxCell id="2cpxHM3yIK8OX2Y2aTpp-62" value="TipoPrueba" style="shape=table;startSize=30;container=1;collapsible=1;childLayout=tableLayout;fixedRows=1;rowLines=0;fontStyle=1;align=center;resizeLast=1;fillColor=#FF99FF;" parent="1" vertex="1">
          <mxGeometry x="-330" y="-1790" width="250" height="130" as="geometry">
            <mxRectangle y="-1745" width="110" height="30" as="alternateBounds" />
          </mxGeometry>
        </mxCell>
        <mxCell id="2cpxHM3yIK8OX2Y2aTpp-63" value="" style="shape=partialRectangle;collapsible=0;dropTarget=0;pointerEvents=0;fillColor=none;points=[[0,0.5],[1,0.5]];portConstraint=eastwest;top=0;left=0;right=0;bottom=1;" parent="2cpxHM3yIK8OX2Y2aTpp-62" vertex="1">
          <mxGeometry y="30" width="250" height="30" as="geometry" />
        </mxCell>
        <mxCell id="2cpxHM3yIK8OX2Y2aTpp-64" value="PK" style="shape=partialRectangle;overflow=hidden;connectable=0;fillColor=none;top=0;left=0;bottom=0;right=0;fontStyle=1;" parent="2cpxHM3yIK8OX2Y2aTpp-63" vertex="1">
          <mxGeometry width="30" height="30" as="geometry">
            <mxRectangle width="30" height="30" as="alternateBounds" />
          </mxGeometry>
        </mxCell>
        <mxCell id="2cpxHM3yIK8OX2Y2aTpp-65" value="id_tipoPrueba" style="shape=partialRectangle;overflow=hidden;connectable=0;fillColor=none;top=0;left=0;bottom=0;right=0;align=left;spacingLeft=6;fontStyle=5;" parent="2cpxHM3yIK8OX2Y2aTpp-63" vertex="1">
          <mxGeometry x="30" width="220" height="30" as="geometry">
            <mxRectangle width="220" height="30" as="alternateBounds" />
          </mxGeometry>
        </mxCell>
        <mxCell id="2cpxHM3yIK8OX2Y2aTpp-66" value="" style="shape=partialRectangle;collapsible=0;dropTarget=0;pointerEvents=0;fillColor=none;points=[[0,0.5],[1,0.5]];portConstraint=eastwest;top=0;left=0;right=0;bottom=0;" parent="2cpxHM3yIK8OX2Y2aTpp-62" vertex="1">
          <mxGeometry y="60" width="250" height="30" as="geometry" />
        </mxCell>
        <mxCell id="2cpxHM3yIK8OX2Y2aTpp-67" value="" style="shape=partialRectangle;overflow=hidden;connectable=0;fillColor=none;top=0;left=0;bottom=0;right=0;" parent="2cpxHM3yIK8OX2Y2aTpp-66" vertex="1">
          <mxGeometry width="30" height="30" as="geometry">
            <mxRectangle width="30" height="30" as="alternateBounds" />
          </mxGeometry>
        </mxCell>
        <mxCell id="2cpxHM3yIK8OX2Y2aTpp-68" value="descripcionPrueba" style="shape=partialRectangle;overflow=hidden;connectable=0;fillColor=none;top=0;left=0;bottom=0;right=0;align=left;spacingLeft=6;" parent="2cpxHM3yIK8OX2Y2aTpp-66" vertex="1">
          <mxGeometry x="30" width="220" height="30" as="geometry">
            <mxRectangle width="220" height="30" as="alternateBounds" />
          </mxGeometry>
        </mxCell>
        <mxCell id="2cpxHM3yIK8OX2Y2aTpp-72" style="shape=partialRectangle;collapsible=0;dropTarget=0;pointerEvents=0;fillColor=none;points=[[0,0.5],[1,0.5]];portConstraint=eastwest;top=0;left=0;right=0;bottom=0;" parent="2cpxHM3yIK8OX2Y2aTpp-62" vertex="1">
          <mxGeometry y="90" width="250" height="30" as="geometry" />
        </mxCell>
        <mxCell id="2cpxHM3yIK8OX2Y2aTpp-73" value="fk" style="shape=partialRectangle;overflow=hidden;connectable=0;fillColor=none;top=0;left=0;bottom=0;right=0;" parent="2cpxHM3yIK8OX2Y2aTpp-72" vertex="1">
          <mxGeometry width="30" height="30" as="geometry">
            <mxRectangle width="30" height="30" as="alternateBounds" />
          </mxGeometry>
        </mxCell>
        <mxCell id="2cpxHM3yIK8OX2Y2aTpp-74" value="id_tipoEvaluacion" style="shape=partialRectangle;overflow=hidden;connectable=0;fillColor=none;top=0;left=0;bottom=0;right=0;align=left;spacingLeft=6;" parent="2cpxHM3yIK8OX2Y2aTpp-72" vertex="1">
          <mxGeometry x="30" width="220" height="30" as="geometry">
            <mxRectangle width="220" height="30" as="alternateBounds" />
          </mxGeometry>
        </mxCell>
        <mxCell id="2cpxHM3yIK8OX2Y2aTpp-75" value="" style="edgeStyle=entityRelationEdgeStyle;fontSize=12;html=1;endArrow=ERoneToMany;rounded=0;exitX=0;exitY=0.5;exitDx=0;exitDy=0;entryX=1;entryY=0.5;entryDx=0;entryDy=0;" parent="1" source="RLNbgqbNuMuGLS2s5ce6-2" target="2cpxHM3yIK8OX2Y2aTpp-72" edge="1">
          <mxGeometry width="100" height="100" relative="1" as="geometry">
            <mxPoint x="-110" y="-1630" as="sourcePoint" />
            <mxPoint x="-40" y="-1610" as="targetPoint" />
          </mxGeometry>
        </mxCell>
        <mxCell id="rrZAhegM9poQaYea05o--1" value="Cliente" style="shape=table;startSize=30;container=1;collapsible=1;childLayout=tableLayout;fixedRows=1;rowLines=0;fontStyle=1;align=center;resizeLast=1;fillColor=#FF99FF;" parent="1" vertex="1">
          <mxGeometry x="-1400" y="-1430" width="250" height="100" as="geometry" />
        </mxCell>
        <mxCell id="rrZAhegM9poQaYea05o--2" value="" style="shape=partialRectangle;collapsible=0;dropTarget=0;pointerEvents=0;fillColor=none;points=[[0,0.5],[1,0.5]];portConstraint=eastwest;top=0;left=0;right=0;bottom=1;" parent="rrZAhegM9poQaYea05o--1" vertex="1">
          <mxGeometry y="30" width="250" height="30" as="geometry" />
        </mxCell>
        <mxCell id="rrZAhegM9poQaYea05o--3" value="PK" style="shape=partialRectangle;overflow=hidden;connectable=0;fillColor=none;top=0;left=0;bottom=0;right=0;fontStyle=1;" parent="rrZAhegM9poQaYea05o--2" vertex="1">
          <mxGeometry width="30" height="30" as="geometry">
            <mxRectangle width="30" height="30" as="alternateBounds" />
          </mxGeometry>
        </mxCell>
        <mxCell id="rrZAhegM9poQaYea05o--4" value="id_cliente" style="shape=partialRectangle;overflow=hidden;connectable=0;fillColor=none;top=0;left=0;bottom=0;right=0;align=left;spacingLeft=6;fontStyle=5;" parent="rrZAhegM9poQaYea05o--2" vertex="1">
          <mxGeometry x="30" width="220" height="30" as="geometry">
            <mxRectangle width="220" height="30" as="alternateBounds" />
          </mxGeometry>
        </mxCell>
        <mxCell id="rrZAhegM9poQaYea05o--5" value="" style="shape=partialRectangle;collapsible=0;dropTarget=0;pointerEvents=0;fillColor=none;points=[[0,0.5],[1,0.5]];portConstraint=eastwest;top=0;left=0;right=0;bottom=0;" parent="rrZAhegM9poQaYea05o--1" vertex="1">
          <mxGeometry y="60" width="250" height="30" as="geometry" />
        </mxCell>
        <mxCell id="rrZAhegM9poQaYea05o--6" value="" style="shape=partialRectangle;overflow=hidden;connectable=0;fillColor=none;top=0;left=0;bottom=0;right=0;" parent="rrZAhegM9poQaYea05o--5" vertex="1">
          <mxGeometry width="30" height="30" as="geometry">
            <mxRectangle width="30" height="30" as="alternateBounds" />
          </mxGeometry>
        </mxCell>
        <mxCell id="rrZAhegM9poQaYea05o--7" value="descripcionCliente" style="shape=partialRectangle;overflow=hidden;connectable=0;fillColor=none;top=0;left=0;bottom=0;right=0;align=left;spacingLeft=6;" parent="rrZAhegM9poQaYea05o--5" vertex="1">
          <mxGeometry x="30" width="220" height="30" as="geometry">
            <mxRectangle width="220" height="30" as="alternateBounds" />
          </mxGeometry>
        </mxCell>
        <mxCell id="pLVBU-vTUnIjWwf9q_YQ-1" value="TipoPruebaEspecial" style="shape=table;startSize=30;container=1;collapsible=1;childLayout=tableLayout;fixedRows=1;rowLines=0;fontStyle=1;align=center;resizeLast=1;fillColor=#FF99FF;" parent="1" vertex="1">
          <mxGeometry x="-330" y="-1620" width="250" height="130" as="geometry">
            <mxRectangle y="-1745" width="110" height="30" as="alternateBounds" />
          </mxGeometry>
        </mxCell>
        <mxCell id="pLVBU-vTUnIjWwf9q_YQ-2" value="" style="shape=partialRectangle;collapsible=0;dropTarget=0;pointerEvents=0;fillColor=none;points=[[0,0.5],[1,0.5]];portConstraint=eastwest;top=0;left=0;right=0;bottom=1;" parent="pLVBU-vTUnIjWwf9q_YQ-1" vertex="1">
          <mxGeometry y="30" width="250" height="30" as="geometry" />
        </mxCell>
        <mxCell id="pLVBU-vTUnIjWwf9q_YQ-3" value="PK" style="shape=partialRectangle;overflow=hidden;connectable=0;fillColor=none;top=0;left=0;bottom=0;right=0;fontStyle=1;" parent="pLVBU-vTUnIjWwf9q_YQ-2" vertex="1">
          <mxGeometry width="30" height="30" as="geometry">
            <mxRectangle width="30" height="30" as="alternateBounds" />
          </mxGeometry>
        </mxCell>
        <mxCell id="pLVBU-vTUnIjWwf9q_YQ-4" value="id_pruebaEspecial" style="shape=partialRectangle;overflow=hidden;connectable=0;fillColor=none;top=0;left=0;bottom=0;right=0;align=left;spacingLeft=6;fontStyle=5;" parent="pLVBU-vTUnIjWwf9q_YQ-2" vertex="1">
          <mxGeometry x="30" width="220" height="30" as="geometry">
            <mxRectangle width="220" height="30" as="alternateBounds" />
          </mxGeometry>
        </mxCell>
        <mxCell id="pLVBU-vTUnIjWwf9q_YQ-5" value="" style="shape=partialRectangle;collapsible=0;dropTarget=0;pointerEvents=0;fillColor=none;points=[[0,0.5],[1,0.5]];portConstraint=eastwest;top=0;left=0;right=0;bottom=0;" parent="pLVBU-vTUnIjWwf9q_YQ-1" vertex="1">
          <mxGeometry y="60" width="250" height="30" as="geometry" />
        </mxCell>
        <mxCell id="pLVBU-vTUnIjWwf9q_YQ-6" value="" style="shape=partialRectangle;overflow=hidden;connectable=0;fillColor=none;top=0;left=0;bottom=0;right=0;" parent="pLVBU-vTUnIjWwf9q_YQ-5" vertex="1">
          <mxGeometry width="30" height="30" as="geometry">
            <mxRectangle width="30" height="30" as="alternateBounds" />
          </mxGeometry>
        </mxCell>
        <mxCell id="pLVBU-vTUnIjWwf9q_YQ-7" value="descripcionEspecial" style="shape=partialRectangle;overflow=hidden;connectable=0;fillColor=none;top=0;left=0;bottom=0;right=0;align=left;spacingLeft=6;" parent="pLVBU-vTUnIjWwf9q_YQ-5" vertex="1">
          <mxGeometry x="30" width="220" height="30" as="geometry">
            <mxRectangle width="220" height="30" as="alternateBounds" />
          </mxGeometry>
        </mxCell>
        <mxCell id="pLVBU-vTUnIjWwf9q_YQ-8" style="shape=partialRectangle;collapsible=0;dropTarget=0;pointerEvents=0;fillColor=none;points=[[0,0.5],[1,0.5]];portConstraint=eastwest;top=0;left=0;right=0;bottom=0;" parent="pLVBU-vTUnIjWwf9q_YQ-1" vertex="1">
          <mxGeometry y="90" width="250" height="30" as="geometry" />
        </mxCell>
        <mxCell id="pLVBU-vTUnIjWwf9q_YQ-9" value="fk" style="shape=partialRectangle;overflow=hidden;connectable=0;fillColor=none;top=0;left=0;bottom=0;right=0;" parent="pLVBU-vTUnIjWwf9q_YQ-8" vertex="1">
          <mxGeometry width="30" height="30" as="geometry">
            <mxRectangle width="30" height="30" as="alternateBounds" />
          </mxGeometry>
        </mxCell>
        <mxCell id="pLVBU-vTUnIjWwf9q_YQ-10" value="id_tipoPrueba" style="shape=partialRectangle;overflow=hidden;connectable=0;fillColor=none;top=0;left=0;bottom=0;right=0;align=left;spacingLeft=6;" parent="pLVBU-vTUnIjWwf9q_YQ-8" vertex="1">
          <mxGeometry x="30" width="220" height="30" as="geometry">
            <mxRectangle width="220" height="30" as="alternateBounds" />
          </mxGeometry>
        </mxCell>
        <mxCell id="pLVBU-vTUnIjWwf9q_YQ-11" value="" style="edgeStyle=orthogonalEdgeStyle;fontSize=12;html=1;endArrow=ERoneToMany;rounded=0;exitX=1;exitY=0.5;exitDx=0;exitDy=0;entryX=1.009;entryY=0.928;entryDx=0;entryDy=0;entryPerimeter=0;" parent="1" source="2cpxHM3yIK8OX2Y2aTpp-63" target="pLVBU-vTUnIjWwf9q_YQ-8" edge="1">
          <mxGeometry width="100" height="100" relative="1" as="geometry">
            <mxPoint x="270" y="-1610" as="sourcePoint" />
            <mxPoint x="-101" y="-1700" as="targetPoint" />
            <Array as="points">
              <mxPoint x="-60" y="-1745" />
              <mxPoint x="-60" y="-1502" />
            </Array>
          </mxGeometry>
        </mxCell>
        <mxCell id="NV7ffGwy70YMcMXZRiGU-1" value="" style="edgeStyle=orthogonalEdgeStyle;fontSize=12;html=1;endArrow=ERoneToMany;rounded=0;entryX=0;entryY=0.5;entryDx=0;entryDy=0;exitX=1;exitY=0.5;exitDx=0;exitDy=0;" parent="1" source="tPZ1TF45j2V1VS2c7b3F-2" target="rrZAhegM9poQaYea05o--16" edge="1">
          <mxGeometry width="100" height="100" relative="1" as="geometry">
            <mxPoint x="-1200" y="-1400" as="sourcePoint" />
            <mxPoint x="-730" y="-1250" as="targetPoint" />
          </mxGeometry>
        </mxCell>
        <mxCell id="tPZ1TF45j2V1VS2c7b3F-1" value="DescripcionMaterial" style="shape=table;startSize=30;container=1;collapsible=1;childLayout=tableLayout;fixedRows=1;rowLines=0;fontStyle=1;align=center;resizeLast=1;fillColor=#FF99FF;" parent="1" vertex="1">
          <mxGeometry x="-700" y="-1430" width="250" height="160" as="geometry" />
        </mxCell>
        <mxCell id="tPZ1TF45j2V1VS2c7b3F-2" value="" style="shape=partialRectangle;collapsible=0;dropTarget=0;pointerEvents=0;fillColor=none;points=[[0,0.5],[1,0.5]];portConstraint=eastwest;top=0;left=0;right=0;bottom=1;" parent="tPZ1TF45j2V1VS2c7b3F-1" vertex="1">
          <mxGeometry y="30" width="250" height="30" as="geometry" />
        </mxCell>
        <mxCell id="tPZ1TF45j2V1VS2c7b3F-3" value="PK" style="shape=partialRectangle;overflow=hidden;connectable=0;fillColor=none;top=0;left=0;bottom=0;right=0;fontStyle=1;" parent="tPZ1TF45j2V1VS2c7b3F-2" vertex="1">
          <mxGeometry width="30" height="30" as="geometry">
            <mxRectangle width="30" height="30" as="alternateBounds" />
          </mxGeometry>
        </mxCell>
        <mxCell id="tPZ1TF45j2V1VS2c7b3F-4" value="id_descripcion" style="shape=partialRectangle;overflow=hidden;connectable=0;fillColor=none;top=0;left=0;bottom=0;right=0;align=left;spacingLeft=6;fontStyle=5;" parent="tPZ1TF45j2V1VS2c7b3F-2" vertex="1">
          <mxGeometry x="30" width="220" height="30" as="geometry">
            <mxRectangle width="220" height="30" as="alternateBounds" />
          </mxGeometry>
        </mxCell>
        <mxCell id="tPZ1TF45j2V1VS2c7b3F-5" value="" style="shape=partialRectangle;collapsible=0;dropTarget=0;pointerEvents=0;fillColor=none;points=[[0,0.5],[1,0.5]];portConstraint=eastwest;top=0;left=0;right=0;bottom=0;" parent="tPZ1TF45j2V1VS2c7b3F-1" vertex="1">
          <mxGeometry y="60" width="250" height="30" as="geometry" />
        </mxCell>
        <mxCell id="tPZ1TF45j2V1VS2c7b3F-6" value="" style="shape=partialRectangle;overflow=hidden;connectable=0;fillColor=none;top=0;left=0;bottom=0;right=0;" parent="tPZ1TF45j2V1VS2c7b3F-5" vertex="1">
          <mxGeometry width="30" height="30" as="geometry">
            <mxRectangle width="30" height="30" as="alternateBounds" />
          </mxGeometry>
        </mxCell>
        <mxCell id="tPZ1TF45j2V1VS2c7b3F-7" value="descripcionMaterial" style="shape=partialRectangle;overflow=hidden;connectable=0;fillColor=none;top=0;left=0;bottom=0;right=0;align=left;spacingLeft=6;" parent="tPZ1TF45j2V1VS2c7b3F-5" vertex="1">
          <mxGeometry x="30" width="220" height="30" as="geometry">
            <mxRectangle width="220" height="30" as="alternateBounds" />
          </mxGeometry>
        </mxCell>
        <mxCell id="tPZ1TF45j2V1VS2c7b3F-8" style="shape=partialRectangle;collapsible=0;dropTarget=0;pointerEvents=0;fillColor=none;points=[[0,0.5],[1,0.5]];portConstraint=eastwest;top=0;left=0;right=0;bottom=0;" parent="tPZ1TF45j2V1VS2c7b3F-1" vertex="1">
          <mxGeometry y="90" width="250" height="30" as="geometry" />
        </mxCell>
        <mxCell id="tPZ1TF45j2V1VS2c7b3F-9" value="" style="shape=partialRectangle;overflow=hidden;connectable=0;fillColor=none;top=0;left=0;bottom=0;right=0;" parent="tPZ1TF45j2V1VS2c7b3F-8" vertex="1">
          <mxGeometry width="30" height="30" as="geometry">
            <mxRectangle width="30" height="30" as="alternateBounds" />
          </mxGeometry>
        </mxCell>
        <mxCell id="tPZ1TF45j2V1VS2c7b3F-10" value="imgMaterial" style="shape=partialRectangle;overflow=hidden;connectable=0;fillColor=none;top=0;left=0;bottom=0;right=0;align=left;spacingLeft=6;" parent="tPZ1TF45j2V1VS2c7b3F-8" vertex="1">
          <mxGeometry x="30" width="220" height="30" as="geometry">
            <mxRectangle width="220" height="30" as="alternateBounds" />
          </mxGeometry>
        </mxCell>
        <mxCell id="tPZ1TF45j2V1VS2c7b3F-11" style="shape=partialRectangle;collapsible=0;dropTarget=0;pointerEvents=0;fillColor=none;points=[[0,0.5],[1,0.5]];portConstraint=eastwest;top=0;left=0;right=0;bottom=0;" parent="tPZ1TF45j2V1VS2c7b3F-1" vertex="1">
          <mxGeometry y="120" width="250" height="30" as="geometry" />
        </mxCell>
        <mxCell id="tPZ1TF45j2V1VS2c7b3F-12" value="fk" style="shape=partialRectangle;overflow=hidden;connectable=0;fillColor=none;top=0;left=0;bottom=0;right=0;" parent="tPZ1TF45j2V1VS2c7b3F-11" vertex="1">
          <mxGeometry width="30" height="30" as="geometry">
            <mxRectangle width="30" height="30" as="alternateBounds" />
          </mxGeometry>
        </mxCell>
        <mxCell id="tPZ1TF45j2V1VS2c7b3F-13" value="id_plataforma" style="shape=partialRectangle;overflow=hidden;connectable=0;fillColor=none;top=0;left=0;bottom=0;right=0;align=left;spacingLeft=6;" parent="tPZ1TF45j2V1VS2c7b3F-11" vertex="1">
          <mxGeometry x="30" width="220" height="30" as="geometry">
            <mxRectangle width="220" height="30" as="alternateBounds" />
          </mxGeometry>
        </mxCell>
        <mxCell id="tPZ1TF45j2V1VS2c7b3F-14" value="" style="edgeStyle=entityRelationEdgeStyle;fontSize=12;html=1;endArrow=ERoneToMany;rounded=0;exitX=1;exitY=0.5;exitDx=0;exitDy=0;" parent="1" source="RLNbgqbNuMuGLS2s5ce6-17" target="tPZ1TF45j2V1VS2c7b3F-11" edge="1">
          <mxGeometry width="100" height="100" relative="1" as="geometry">
            <mxPoint x="-1380" y="-1420" as="sourcePoint" />
            <mxPoint x="-1280" y="-1520" as="targetPoint" />
          </mxGeometry>
        </mxCell>
        <mxCell id="g0l8fv2HCi-34N9ToXUz-30" value="" style="edgeStyle=entityRelationEdgeStyle;fontSize=12;html=1;endArrow=ERoneToMany;rounded=0;exitX=0;exitY=0.5;exitDx=0;exitDy=0;entryX=1;entryY=0.5;entryDx=0;entryDy=0;" edge="1" parent="1" source="pLVBU-vTUnIjWwf9q_YQ-2" target="g0l8fv2HCi-34N9ToXUz-27">
          <mxGeometry width="100" height="100" relative="1" as="geometry">
            <mxPoint x="-580" y="-1560" as="sourcePoint" />
            <mxPoint x="-480" y="-1660" as="targetPoint" />
          </mxGeometry>
        </mxCell>
        <mxCell id="g0l8fv2HCi-34N9ToXUz-36" value="" style="shape=table;startSize=0;container=1;collapsible=0;childLayout=tableLayout;" vertex="1" parent="1">
          <mxGeometry x="60" y="-1960" width="190" height="80" as="geometry" />
        </mxCell>
        <mxCell id="g0l8fv2HCi-34N9ToXUz-37" value="" style="shape=tableRow;horizontal=0;startSize=0;swimlaneHead=0;swimlaneBody=0;strokeColor=inherit;top=0;left=0;bottom=0;right=0;collapsible=0;dropTarget=0;fillColor=none;points=[[0,0.5],[1,0.5]];portConstraint=eastwest;" vertex="1" parent="g0l8fv2HCi-34N9ToXUz-36">
          <mxGeometry width="190" height="40" as="geometry" />
        </mxCell>
        <mxCell id="g0l8fv2HCi-34N9ToXUz-38" value="Registro de los usuarios" style="shape=partialRectangle;html=1;whiteSpace=wrap;connectable=0;strokeColor=inherit;overflow=hidden;fillColor=none;top=0;left=0;bottom=0;right=0;pointerEvents=1;" vertex="1" parent="g0l8fv2HCi-34N9ToXUz-37">
          <mxGeometry width="95" height="40" as="geometry">
            <mxRectangle width="95" height="40" as="alternateBounds" />
          </mxGeometry>
        </mxCell>
        <mxCell id="g0l8fv2HCi-34N9ToXUz-39" value="" style="shape=partialRectangle;html=1;whiteSpace=wrap;connectable=0;strokeColor=inherit;overflow=hidden;fillColor=#97D077;top=0;left=0;bottom=0;right=0;pointerEvents=1;" vertex="1" parent="g0l8fv2HCi-34N9ToXUz-37">
          <mxGeometry x="95" width="95" height="40" as="geometry">
            <mxRectangle width="95" height="40" as="alternateBounds" />
          </mxGeometry>
        </mxCell>
        <mxCell id="g0l8fv2HCi-34N9ToXUz-40" value="" style="shape=tableRow;horizontal=0;startSize=0;swimlaneHead=0;swimlaneBody=0;strokeColor=inherit;top=0;left=0;bottom=0;right=0;collapsible=0;dropTarget=0;fillColor=none;points=[[0,0.5],[1,0.5]];portConstraint=eastwest;" vertex="1" parent="g0l8fv2HCi-34N9ToXUz-36">
          <mxGeometry y="40" width="190" height="40" as="geometry" />
        </mxCell>
        <mxCell id="g0l8fv2HCi-34N9ToXUz-41" value="Catálogos" style="shape=partialRectangle;html=1;whiteSpace=wrap;connectable=0;strokeColor=inherit;overflow=hidden;fillColor=none;top=0;left=0;bottom=0;right=0;pointerEvents=1;" vertex="1" parent="g0l8fv2HCi-34N9ToXUz-40">
          <mxGeometry width="95" height="40" as="geometry">
            <mxRectangle width="95" height="40" as="alternateBounds" />
          </mxGeometry>
        </mxCell>
        <mxCell id="g0l8fv2HCi-34N9ToXUz-42" value="" style="shape=partialRectangle;html=1;whiteSpace=wrap;connectable=0;strokeColor=inherit;overflow=hidden;fillColor=#FF99FF;top=0;left=0;bottom=0;right=0;pointerEvents=1;" vertex="1" parent="g0l8fv2HCi-34N9ToXUz-40">
          <mxGeometry x="95" width="95" height="40" as="geometry">
            <mxRectangle width="95" height="40" as="alternateBounds" />
          </mxGeometry>
        </mxCell>
      </root>
    </mxGraphModel>
  </diagram>
</mxfile>
